FONTBOUNDINGBOX 56 28 -10 -10
FONT_ASCENT 23
FONT_DESCENT 5
DEFAULT_CHAR 12
STARTCHAR C0011
ENCODING 11
SWIDTH 562 0
DWIDTH 12 0
BBX 10 15 1 0
BITMAP
FFC0
FFC0
E0C0
E0C0
E0C0
E0C0
E0C0
E0C0
E0C0
E0C0
E0C0
E0C0
E0C0
FFC0
FFC0
ENDCHAR
ENCODING 12
SWIDTH 562 0
DWIDTH 12 0
BBX 10 15 1 0
BITMAP
FFC0
FFC0
E0C0
E0C0
E0C0
E0C0
E0C0
E0C0
E0C0
E0C0
E0C0
E0C0
E0C0
FFC0
FFC0
ENDCHAR
STARTCHAR C0013
ENCODING 13
SWIDTH 562 0
DWIDTH 12 0
BBX 1 1 0 -1
BITMAP
00
ENDCHAR
STARTCHAR C0014
ENCODING 14
SWIDTH 562 0
DWIDTH 12 0
BBX 10 15 1 0
BITMAP
FFC0
FFC0
E0C0
E0C0
E0C0
E0C0
E0C0
E0C0
E0C0
E0C0
E0C0
E0C0
E0C0
FFC0
FFC0
ENDCHAR
STARTCHAR C0015
ENCODING 15
SWIDTH 562 0
DWIDTH 12 0
BBX 10 15 1 0
BITMAP
FFC0
FFC0
E0C0
E0C0
E0C0
E0C0
E0C0
E0C0
E0C0
E0C0
E0C0
E0C0
E0C0
FFC0
FFC0
ENDCHAR
STARTCHAR C0016
ENCODING 16
SWIDTH 562 0
DWIDTH 12 0
BBX 10 15 1 0
BITMAP
FFC0
FFC0
E0C0
E0C0
E0C0
E0C0
E0C0
E0C0
E0C0
E0C0
E0C0
E0C0
E0C0
FFC0
FFC0
ENDCHAR
STARTCHAR C0017
ENCODING 17
SWIDTH 562 0
DWIDTH 12 0
BBX 10 15 1 0
BITMAP
FFC0
FFC0
E0C0
E0C0
E0C0
E0C0
E0C0
E0C0
E0C0
E0C0
E0C0
E0C0
E0C0
FFC0
FFC0
ENDCHAR
STARTCHAR C0018
ENCODING 18
SWIDTH 562 0
DWIDTH 12 0
BBX 10 15 1 0
BITMAP
FFC0
FFC0
E0C0
E0C0
E0C0
E0C0
E0C0
E0C0
E0C0
E0C0
E0C0
E0C0
E0C0
FFC0
FFC0
ENDCHAR
STARTCHAR C0019
ENCODING 19
SWIDTH 562 0
DWIDTH 12 0
BBX 10 15 1 0
BITMAP
FFC0
FFC0
E0C0
E0C0
E0C0
E0C0
E0C0
E0C0
E0C0
E0C0
E0C0
E0C0
E0C0
FFC0
FFC0
ENDCHAR
STARTCHAR C0020
ENCODING 20
SWIDTH 562 0
DWIDTH 12 0
BBX 10 15 1 0
BITMAP
FFC0
FFC0
E0C0
E0C0
E0C0
E0C0
E0C0
E0C0
E0C0
E0C0
E0C0
E0C0
E0C0
FFC0
FFC0
ENDCHAR
STARTCHAR C0021
ENCODING 21
SWIDTH 562 0
DWIDTH 12 0
BBX 10 15 1 0
BITMAP
FFC0
FFC0
E0C0
E0C0
E0C0
E0C0
E0C0
E0C0
E0C0
E0C0
E0C0
E0C0
E0C0
FFC0
FFC0
ENDCHAR
STARTCHAR C0022
ENCODING 22
SWIDTH 562 0
DWIDTH 12 0
BBX 10 15 1 0
BITMAP
FFC0
FFC0
E0C0
E0C0
E0C0
E0C0
E0C0
E0C0
E0C0
E0C0
E0C0
E0C0
E0C0
FFC0
FFC0
ENDCHAR
STARTCHAR C0023
ENCODING 23
SWIDTH 562 0
DWIDTH 12 0
BBX 10 15 1 0
BITMAP
FFC0
FFC0
E0C0
E0C0
E0C0
E0C0
E0C0
E0C0
E0C0
E0C0
E0C0
E0C0
E0C0
FFC0
FFC0
ENDCHAR
STARTCHAR C0024
ENCODING 24
SWIDTH 562 0
DWIDTH 12 0
BBX 10 15 1 0
BITMAP
FFC0
FFC0
E0C0
E0C0
E0C0
E0C0
E0C0
E0C0
E0C0
E0C0
E0C0
E0C0
E0C0
FFC0
FFC0
ENDCHAR
STARTCHAR C0025
ENCODING 25
SWIDTH 562 0
DWIDTH 12 0
BBX 10 15 1 0
BITMAP
FFC0
FFC0
E0C0
E0C0
E0C0
E0C0
E0C0
E0C0
E0C0
E0C0
E0C0
E0C0
E0C0
FFC0
FFC0
ENDCHAR
STARTCHAR C0026
ENCODING 26
SWIDTH 562 0
DWIDTH 12 0
BBX 10 15 1 0
BITMAP
FFC0
FFC0
E0C0
E0C0
E0C0
E0C0
E0C0
E0C0
E0C0
E0C0
E0C0
E0C0
E0C0
FFC0
FFC0
ENDCHAR
STARTCHAR C0027
ENCODING 27
SWIDTH 562 0
DWIDTH 12 0
BBX 10 15 1 0
BITMAP
FFC0
FFC0
E0C0
E0C0
E0C0
E0C0
E0C0
E0C0
E0C0
E0C0
E0C0
E0C0
E0C0
FFC0
FFC0
ENDCHAR
STARTCHAR C0028
ENCODING 28
SWIDTH 562 0
DWIDTH 12 0
BBX 10 15 1 0
BITMAP
FFC0
FFC0
E0C0
E0C0
E0C0
E0C0
E0C0
E0C0
E0C0
E0C0
E0C0
E0C0
E0C0
FFC0
FFC0
ENDCHAR
STARTCHAR C0029
ENCODING 29
SWIDTH 562 0
DWIDTH 12 0
BBX 10 15 1 0
BITMAP
FFC0
FFC0
E0C0
E0C0
E0C0
E0C0
E0C0
E0C0
E0C0
E0C0
E0C0
E0C0
E0C0
FFC0
FFC0
ENDCHAR
STARTCHAR C0030
ENCODING 30
SWIDTH 562 0
DWIDTH 12 0
BBX 10 15 1 0
BITMAP
FFC0
FFC0
E0C0
E0C0
E0C0
E0C0
E0C0
E0C0
E0C0
E0C0
E0C0
E0C0
E0C0
FFC0
FFC0
ENDCHAR
STARTCHAR C0031
ENCODING 31
SWIDTH 562 0
DWIDTH 12 0
BBX 10 15 1 0
BITMAP
FFC0
FFC0
E0C0
E0C0
E0C0
E0C0
E0C0
E0C0
E0C0
E0C0
E0C0
E0C0
E0C0
FFC0
FFC0
ENDCHAR
STARTCHAR C0032- 
ENCODING 32
SWIDTH 562 0
DWIDTH 12 0
BBX 1 1 0 -1
BITMAP
00
ENDCHAR
STARTCHAR C0033-!
ENCODING 33
SWIDTH 562 0
DWIDTH 12 0
BBX 4 15 4 0
BITMAP
70
60
60
60
60
60
60
60
60
60
00
00
60
F0
60
ENDCHAR
STARTCHAR C0034-"
ENCODING 34
SWIDTH 562 0
DWIDTH 12 0
BBX 7 7 3 8
BITMAP
EE
EE
CC
CC
CC
CC
CC
ENDCHAR
STARTCHAR C0035-#
ENCODING 35
SWIDTH 562 0
DWIDTH 12 0
BBX 10 15 1 0
BITMAP
3980
3980
3180
3180
FFC0
FFC0
3380
3300
3300
FFC0
FFC0
3300
7300
7300
6300
ENDCHAR
STARTCHAR C0036-$
ENCODING 36
SWIDTH 562 0
DWIDTH 12 0
BBX 10 21 1 -3
BITMAP
0C00
0C00
0C00
1F00
7FC0
7D80
6C00
6C00
7C00
7C00
1F00
0F80
0FC0
0DC0
0DC0
CDC0
FF80
7F00
0C00
0C00
0C00
ENDCHAR
STARTCHAR C0037-%
ENCODING 37
SWIDTH 562 0
DWIDTH 12 0
BBX 12 15 0 0
BITMAP
3C00
7C00
6600
E600
6660
7DE0
3B80
0700
1DE0
3BF0
7330
0330
0330
03F0
01E0
ENDCHAR
STARTCHAR C0038-&
ENCODING 38
SWIDTH 562 0
DWIDTH 12 0
BBX 13 15 0 0
BITMAP
0F80
1FC0
39C0
38C0
3800
3800
1C00
1E60
7E60
7760
63E0
E1C0
71E0
7FE0
3E70
ENDCHAR
STARTCHAR C0039-'
ENCODING 39
SWIDTH 562 0
DWIDTH 12 0
BBX 3 7 5 8
BITMAP
E0
E0
C0
C0
C0
C0
C0
ENDCHAR
STARTCHAR C0040-(
ENCODING 40
SWIDTH 562 0
DWIDTH 12 0
BBX 7 19 3 -2
BITMAP
06
1E
3C
70
60
E0
E0
C0
C0
C0
C0
C0
C0
E0
E0
60
70
3E
1E
ENDCHAR
STARTCHAR C0041-)
ENCODING 41
SWIDTH 562 0
DWIDTH 12 0
BBX 8 19 2 -2
BITMAP
C0
F0
78
1C
0E
0E
06
07
07
07
07
07
06
06
0E
0E
1C
F8
F0
ENDCHAR
STARTCHAR C0042-*
ENCODING 42
SWIDTH 562 0
DWIDTH 12 0
BBX 10 10 1 2
BITMAP
0C00
0C00
4C40
FFC0
7F80
1E00
1F00
3B80
7380
0100
ENDCHAR
STARTCHAR C0043-+
ENCODING 43
SWIDTH 562 0
DWIDTH 12 0
BBX 10 10 1 2
BITMAP
0C00
0C00
0C00
0C00
FFC0
FFC0
0C00
0C00
0C00
0C00
ENDCHAR
STARTCHAR C0044-,
ENCODING 44
SWIDTH 562 0
DWIDTH 12 0
BBX 4 7 4 -4
BITMAP
70
60
60
E0
E0
E0
C0
ENDCHAR
STARTCHAR C0045--
ENCODING 45
SWIDTH 562 0
DWIDTH 12 0
BBX 10 2 1 6
BITMAP
FFC0
FFC0
ENDCHAR
STARTCHAR C0046-.
ENCODING 46
SWIDTH 562 0
DWIDTH 12 0
BBX 4 3 4 0
BITMAP
60
F0
60
ENDCHAR
STARTCHAR C0047-/
ENCODING 47
SWIDTH 562 0
DWIDTH 12 0
BBX 11 18 1 -1
BITMAP
00E0
00C0
01C0
0180
0380
0300
0700
0600
0E00
0E00
0C00
1C00
1800
3800
3000
7000
6000
E000
ENDCHAR
STARTCHAR C0048-0
ENCODING 48
SWIDTH 562 0
DWIDTH 12 0
BBX 10 15 1 0
BITMAP
1E00
3F80
7380
61C0
E1C0
E0C0
ECC0
EEC0
ECC0
E0C0
E1C0
61C0
7380
3F80
1E00
ENDCHAR
STARTCHAR C0049-1
ENCODING 49
SWIDTH 562 0
DWIDTH 12 0
BBX 9 15 2 0
BITMAP
3C00
FC00
DC00
1C00
1C00
1C00
1C00
1C00
1C00
1C00
1C00
1C00
1C00
FF80
FF80
ENDCHAR
STARTCHAR C0050-2
ENCODING 50
SWIDTH 562 0
DWIDTH 12 0
BBX 10 15 1 0
BITMAP
3E00
7F80
E380
4180
01C0
0180
0380
0380
0700
0E00
1C00
7800
F000
FFC0
FFC0
ENDCHAR
STARTCHAR C0051-3
ENCODING 51
SWIDTH 562 0
DWIDTH 12 0
BBX 10 15 1 0
BITMAP
3F00
7F80
6180
4180
0180
0700
1E00
1F00
0780
01C0
01C0
01C0
0380
7F80
FE00
ENDCHAR
STARTCHAR C0052-4
ENCODING 52
SWIDTH 562 0
DWIDTH 12 0
BBX 11 15 1 0
BITMAP
0180
7180
7180
7180
6180
6180
6180
E180
E180
E180
FFE0
FFE0
0180
0180
0180
ENDCHAR
STARTCHAR C0053-5
ENCODING 53
SWIDTH 562 0
DWIDTH 12 0
BBX 10 15 1 0
BITMAP
7F80
7F80
7000
7000
7000
7F00
7F80
71C0
01C0
00C0
E0C0
E1C0
71C0
7F80
1F00
ENDCHAR
STARTCHAR C0054-6
ENCODING 54
SWIDTH 562 0
DWIDTH 12 0
BBX 10 15 1 0
BITMAP
0380
0F80
3C00
3800
7000
6200
EF80
FBC0
E1C0
E0C0
E0C0
E0C0
71C0
7F80
1F00
ENDCHAR
STARTCHAR C0055-7
ENCODING 55
SWIDTH 562 0
DWIDTH 12 0
BBX 11 15 1 0
BITMAP
FFE0
FFC0
E1C0
E1C0
E180
0180
0380
0380
0300
0700
0700
0600
0E00
0E00
0C00
ENDCHAR
STARTCHAR C0056-8
ENCODING 56
SWIDTH 562 0
DWIDTH 12 0
BBX 10 15 1 0
BITMAP
1F00
7F80
71C0
61C0
61C0
6180
3F00
1E00
7380
E1C0
E0C0
E0C0
E1C0
7F80
3F00
ENDCHAR
STARTCHAR C0057-9
ENCODING 57
SWIDTH 562 0
DWIDTH 12 0
BBX 10 15 1 0
BITMAP
1F00
7F80
71C0
E1C0
E0C0
E0C0
E1C0
72C0
7FC0
19C0
0180
0380
0F00
7E00
7800
ENDCHAR
STARTCHAR C0058-:
ENCODING 58
SWIDTH 562 0
DWIDTH 12 0
BBX 4 11 4 0
BITMAP
60
F0
60
00
00
00
00
00
60
F0
60
ENDCHAR
STARTCHAR C0059-;
ENCODING 59
SWIDTH 562 0
DWIDTH 12 0
BBX 4 15 4 -4
BITMAP
60
F0
60
00
00
00
00
00
70
60
60
E0
E0
E0
C0
ENDCHAR
STARTCHAR C0060-<
ENCODING 60
SWIDTH 562 0
DWIDTH 12 0
BBX 10 10 1 3
BITMAP
0000
01C0
07C0
3FC0
FC00
C000
FC00
3FC0
07C0
00C0
ENDCHAR
STARTCHAR C0061-=
ENCODING 61
SWIDTH 562 0
DWIDTH 12 0
BBX 10 7 1 4
BITMAP
FFC0
FFC0
0000
0000
0000
FFC0
FFC0
ENDCHAR
STARTCHAR C0062->
ENCODING 62
SWIDTH 562 0
DWIDTH 12 0
BBX 11 10 1 3
BITMAP
0000
E000
FC00
FF00
0FE0
00E0
0FC0
FF00
F800
E000
ENDCHAR
STARTCHAR C0063-?
ENCODING 63
SWIDTH 562 0
DWIDTH 12 0
BBX 9 15 1 0
BITMAP
3F00
7F80
E380
4180
0180
0380
0700
0E00
0C00
0C00
0000
0000
1C00
1C00
1C00
ENDCHAR
STARTCHAR C0064-@
ENCODING 64
SWIDTH 562 0
DWIDTH 12 0
BBX 10 18 1 -3
BITMAP
1F00
3F80
71C0
60C0
EEC0
CFC0
CCC0
D8C0
D8C0
D8C0
D8C0
CDC0
CEC0
E6C0
6000
7000
3F00
0F00
ENDCHAR
STARTCHAR C0065-A
ENCODING 65
SWIDTH 562 0
DWIDTH 12 0
BBX 12 15 0 0
BITMAP
0F00
0F00
0F00
0F80
1D80
1980
19C0
39C0
38C0
30C0
3FE0
7FE0
7060
6070
E070
ENDCHAR
STARTCHAR C0066-B
ENCODING 66
SWIDTH 562 0
DWIDTH 12 0
BBX 10 15 2 0
BITMAP
FE00
FF00
C380
C380
C380
C300
FE00
FF00
C380
C1C0
C1C0
C1C0
C380
FF80
FF00
ENDCHAR
STARTCHAR C0067-C
ENCODING 67
SWIDTH 562 0
DWIDTH 12 0
BBX 11 15 1 0
BITMAP
0F80
3FC0
70C0
6000
E000
E000
C000
C000
C000
E000
E000
E000
7800
3FC0
0FC0
ENDCHAR
STARTCHAR C0068-D
ENCODING 68
SWIDTH 562 0
DWIDTH 12 0
BBX 11 15 1 0
BITMAP
FE00
FF80
E380
E1C0
E0C0
E0E0
E0E0
E0E0
E0E0
E0E0
E0C0
E1C0
E3C0
FF80
FE00
ENDCHAR
STARTCHAR C0069-E
ENCODING 69
SWIDTH 562 0
DWIDTH 12 0
BBX 9 15 2 0
BITMAP
FF80
FF80
C000
C000
C000
C000
C000
FF00
FF00
C000
C000
C000
C000
FF80
FF80
ENDCHAR
STARTCHAR C0070-F
ENCODING 70
SWIDTH 562 0
DWIDTH 12 0
BBX 10 15 2 0
BITMAP
FFC0
FFC0
C000
C000
C000
C000
C000
FF00
FF00
C000
C000
C000
C000
C000
C000
ENDCHAR
STARTCHAR C0071-G
ENCODING 71
SWIDTH 562 0
DWIDTH 12 0
BBX 11 15 1 0
BITMAP
1F80
3FC0
70C0
E000
E000
C000
C000
C000
C7C0
C7C0
E0C0
E0C0
70C0
3FC0
1FC0
ENDCHAR
STARTCHAR C0072-H
ENCODING 72
SWIDTH 562 0
DWIDTH 12 0
BBX 10 15 1 0
BITMAP
E1C0
E1C0
E1C0
E1C0
E1C0
E1C0
E1C0
FFC0
FFC0
E1C0
E1C0
E1C0
E1C0
E1C0
E1C0
ENDCHAR
STARTCHAR C0073-I
ENCODING 73
SWIDTH 562 0
DWIDTH 12 0
BBX 9 15 2 0
BITMAP
FF80
FF80
1800
1800
1800
1800
1800
1800
1800
1800
1800
1800
1800
FF80
FF80
ENDCHAR
STARTCHAR C0074-J
ENCODING 74
SWIDTH 562 0
DWIDTH 12 0
BBX 10 15 1 0
BITMAP
0FC0
0FC0
00C0
00C0
00C0
00C0
00C0
00C0
00C0
00C0
C1C0
E1C0
E180
7F80
3E00
ENDCHAR
STARTCHAR C0075-K
ENCODING 75
SWIDTH 562 0
DWIDTH 12 0
BBX 11 15 1 0
BITMAP
E0C0
E0C0
E0C0
E1C0
E180
E380
E300
EF00
FF00
FB00
E380
E380
E1C0
E1C0
E0E0
ENDCHAR
STARTCHAR C0076-L
ENCODING 76
SWIDTH 562 0
DWIDTH 12 0
BBX 9 15 2 0
BITMAP
C000
C000
C000
C000
C000
C000
C000
C000
C000
C000
C000
C000
C000
FF80
FF80
ENDCHAR
STARTCHAR C0077-M
ENCODING 77
SWIDTH 562 0
DWIDTH 12 0
BBX 10 15 1 0
BITMAP
F3C0
F3C0
F3C0
FAC0
FAC0
FEC0
EEC0
ECC0
ECC0
E0C0
E0C0
E0C0
E0C0
E0C0
E0C0
ENDCHAR
STARTCHAR C0078-N
ENCODING 78
SWIDTH 562 0
DWIDTH 12 0
BBX 10 15 1 0
BITMAP
F1C0
F1C0
F9C0
F9C0
F9C0
E9C0
EDC0
EDC0
E5C0
E7C0
E7C0
E7C0
E3C0
E3C0
E3C0
ENDCHAR
STARTCHAR C0079-O
ENCODING 79
SWIDTH 562 0
DWIDTH 12 0
BBX 11 15 1 0
BITMAP
1F00
7F80
71C0
E1C0
E0C0
C0E0
C0E0
C0E0
C0E0
C0E0
E0C0
E1C0
71C0
7F80
1F00
ENDCHAR
STARTCHAR C0080-P
ENCODING 80
SWIDTH 562 0
DWIDTH 12 0
BBX 10 15 2 0
BITMAP
FE00
FF00
C380
C180
C1C0
C1C0
C1C0
C180
C380
FF00
FE00
C000
C000
C000
C000
ENDCHAR
STARTCHAR C0081-Q
ENCODING 81
SWIDTH 562 0
DWIDTH 12 0
BBX 11 20 1 -5
BITMAP
1F00
7F80
71C0
E1C0
E0C0
C0E0
C0E0
C0E0
C0E0
C0E0
E0C0
E1C0
71C0
7F80
1F00
0C00
0C00
0E00
07C0
03C0
ENDCHAR
STARTCHAR C0082-R
ENCODING 82
SWIDTH 562 0
DWIDTH 12 0
BBX 11 15 1 0
BITMAP
FF00
FF80
E1C0
E0C0
E0C0
E0C0
E1C0
FF80
FF00
E300
E380
E380
E1C0
E1C0
E0E0
ENDCHAR
STARTCHAR C0083-S
ENCODING 83
SWIDTH 562 0
DWIDTH 12 0
BBX 10 15 1 0
BITMAP
1F00
7FC0
7180
6000
6000
7000
7C00
1F00
0F80
03C0
01C0
01C0
C1C0
FF80
7F00
ENDCHAR
STARTCHAR C0084-T
ENCODING 84
SWIDTH 562 0
DWIDTH 12 0
BBX 11 15 1 0
BITMAP
FFE0
FFE0
0C00
0C00
0C00
0C00
0C00
0C00
0C00
0C00
0C00
0C00
0C00
0C00
0C00
ENDCHAR
STARTCHAR C0085-U
ENCODING 85
SWIDTH 562 0
DWIDTH 12 0
BBX 10 15 1 0
BITMAP
E1C0
E1C0
E1C0
E1C0
E1C0
E1C0
E1C0
E1C0
E1C0
E1C0
E1C0
E1C0
71C0
7F80
1F00
ENDCHAR
STARTCHAR C0086-V
ENCODING 86
SWIDTH 562 0
DWIDTH 12 0
BBX 12 15 0 0
BITMAP
E070
6070
7060
7060
30E0
30E0
38C0
38C0
19C0
1980
1980
1D80
0F80
0F00
0F00
ENDCHAR
STARTCHAR C0087-W
ENCODING 87
SWIDTH 562 0
DWIDTH 12 0
BBX 12 15 0 0
BITMAP
E030
E030
E030
E070
6670
6670
6770
6760
6F60
6D60
6D60
6D60
7960
39E0
39E0
ENDCHAR
STARTCHAR C0088-X
ENCODING 88
SWIDTH 562 0
DWIDTH 12 0
BBX 12 15 0 0
BITMAP
7070
70E0
38C0
19C0
1D80
0F80
0F00
0600
0F00
0F80
1D80
19C0
38C0
70E0
7070
ENDCHAR
STARTCHAR C0089-Y
ENCODING 89
SWIDTH 562 0
DWIDTH 12 0
BBX 12 15 0 0
BITMAP
E070
7060
70E0
30C0
39C0
19C0
1D80
0F80
0F00
0700
0600
0600
0600
0600
0600
ENDCHAR
STARTCHAR C0090-Z
ENCODING 90
SWIDTH 562 0
DWIDTH 12 0
BBX 10 15 1 0
BITMAP
FFC0
FFC0
01C0
0380
0300
0700
0E00
0C00
1C00
1800
3800
7000
6000
FFC0
FFC0
ENDCHAR
STARTCHAR C0091-[
ENCODING 91
SWIDTH 562 0
DWIDTH 12 0
BBX 6 19 4 -2
BITMAP
FC
FC
C0
C0
C0
C0
C0
C0
C0
C0
C0
C0
C0
C0
C0
C0
C0
FC
FC
ENDCHAR
STARTCHAR C0092-\
ENCODING 92
SWIDTH 562 0
DWIDTH 12 0
BBX 10 18 1 -1
BITMAP
C000
E000
6000
7000
3000
3800
3800
1800
1C00
0C00
0E00
0600
0700
0300
0380
0380
0180
01C0
ENDCHAR
STARTCHAR C0093-]
ENCODING 93
SWIDTH 562 0
DWIDTH 12 0
BBX 7 19 2 -2
BITMAP
FE
FE
0E
0E
0E
0E
0E
0E
0E
0E
0E
0E
0E
0E
0E
0E
0E
FE
FE
ENDCHAR
STARTCHAR C0094-^
ENCODING 94
SWIDTH 562 0
DWIDTH 12 0
BBX 8 6 2 9
BITMAP
3C
3C
3E
66
67
E3
ENDCHAR
STARTCHAR C0095-_
ENCODING 95
SWIDTH 562 0
DWIDTH 12 0
BBX 10 2 1 -2
BITMAP
FFC0
FFC0
ENDCHAR
STARTCHAR C0096-`
ENCODING 96
SWIDTH 562 0
DWIDTH 12 0
BBX 6 6 3 9
BITMAP
E0
70
70
38
38
18
ENDCHAR
STARTCHAR C0097-a
ENCODING 97
SWIDTH 562 0
DWIDTH 12 0
BBX 11 11 1 0
BITMAP
7E00
7F00
0380
0180
3F80
7F80
E180
C180
E380
FFE0
7DE0
ENDCHAR
STARTCHAR C0098-b
ENCODING 98
SWIDTH 562 0
DWIDTH 12 0
BBX 9 15 2 0
BITMAP
C000
C000
C000
C000
DE00
FF00
E380
C180
C180
C180
C180
C380
C700
FE00
FC00
ENDCHAR
STARTCHAR C0099-c
ENCODING 99
SWIDTH 562 0
DWIDTH 12 0
BBX 10 11 1 0
BITMAP
1F80
3FC0
71C0
6080
E000
E000
E000
6000
7000
3FC0
1FC0
ENDCHAR
STARTCHAR C0100-d
ENCODING 100
SWIDTH 562 0
DWIDTH 12 0
BBX 10 15 1 0
BITMAP
01C0
01C0
01C0
01C0
3DC0
7FC0
E3C0
E1C0
E1C0
C1C0
E1C0
E1C0
E3C0
7FC0
3DC0
ENDCHAR
STARTCHAR C0101-e
ENCODING 101
SWIDTH 562 0
DWIDTH 12 0
BBX 10 11 1 0
BITMAP
1E00
7F80
7180
E1C0
E1C0
FFC0
FFC0
E000
7000
3F80
1F80
ENDCHAR
STARTCHAR C0102-f
ENCODING 102
SWIDTH 562 0
DWIDTH 12 0
BBX 11 15 1 0
BITMAP
03E0
0FC0
0C00
1C00
1800
1800
1800
FFC0
FFC0
1800
1800
1800
1800
1800
1800
ENDCHAR
STARTCHAR C0103-g
ENCODING 103
SWIDTH 562 0
DWIDTH 12 0
BBX 10 16 1 -5
BITMAP
3DC0
7FC0
E3C0
E1C0
E1C0
C1C0
E1C0
E1C0
E3C0
7FC0
3DC0
01C0
0180
0380
7F00
7C00
ENDCHAR
STARTCHAR C0104-h
ENCODING 104
SWIDTH 562 0
DWIDTH 12 0
BBX 9 15 2 0
BITMAP
C000
C000
C000
C000
DE00
DF00
E380
C380
C380
C380
C380
C380
C380
C380
C380
ENDCHAR
STARTCHAR C0105-i
ENCODING 105
SWIDTH 562 0
DWIDTH 12 0
BBX 9 16 2 0
BITMAP
1C00
1C00
1C00
0000
0000
FC00
FC00
0C00
0C00
0C00
0C00
0C00
0C00
0C00
FF80
FF80
ENDCHAR
STARTCHAR C0106-j
ENCODING 106
SWIDTH 562 0
DWIDTH 12 0
BBX 7 21 2 -5
BITMAP
0E
0E
0E
00
00
7E
7E
06
06
06
06
06
06
06
06
06
06
0E
1C
FC
F0
ENDCHAR
STARTCHAR C0107-k
ENCODING 107
SWIDTH 562 0
DWIDTH 12 0
BBX 10 15 2 0
BITMAP
C000
C000
C000
C000
C380
C380
C380
C300
C700
FE00
FE00
C700
C700
C380
C380
ENDCHAR
STARTCHAR C0108-l
ENCODING 108
SWIDTH 562 0
DWIDTH 12 0
BBX 10 15 1 0
BITMAP
FC00
FC00
1C00
1C00
1C00
1C00
1C00
1C00
1C00
1C00
1C00
1C00
1FC0
0FC0
07C0
ENDCHAR
STARTCHAR C0109-m
ENCODING 109
SWIDTH 562 0
DWIDTH 12 0
BBX 10 11 1 0
BITMAP
DDC0
DFC0
ECC0
ECC0
ECC0
ECC0
ECC0
ECC0
ECC0
ECC0
ECC0
ENDCHAR
STARTCHAR C0110-n
ENCODING 110
SWIDTH 562 0
DWIDTH 12 0
BBX 9 11 2 0
BITMAP
DE00
DF00
E380
C380
C380
C380
C380
C380
C380
C380
C380
ENDCHAR
STARTCHAR C0111-o
ENCODING 111
SWIDTH 562 0
DWIDTH 12 0
BBX 10 11 1 0
BITMAP
1F00
3F80
7380
61C0
E1C0
E1C0
E1C0
61C0
7380
3F80
1F00
ENDCHAR
STARTCHAR C0112-p
ENCODING 112
SWIDTH 562 0
DWIDTH 12 0
BBX 9 16 2 -5
BITMAP
DE00
FF00
E380
C180
C180
C180
C180
C180
E380
DF00
DE00
C000
C000
C000
C000
C000
ENDCHAR
STARTCHAR C0113-q
ENCODING 113
SWIDTH 562 0
DWIDTH 12 0
BBX 10 16 1 -5
BITMAP
3DC0
7FC0
E3C0
E1C0
E1C0
C1C0
E1C0
E1C0
E3C0
7FC0
3DC0
01C0
01C0
01C0
01C0
01C0
ENDCHAR
STARTCHAR C0114-r
ENCODING 114
SWIDTH 562 0
DWIDTH 12 0
BBX 11 11 1 0
BITMAP
F3C0
F7C0
3CE0
38E0
3800
3800
3800
3800
3800
FE00
FE00
ENDCHAR
STARTCHAR C0115-s
ENCODING 115
SWIDTH 562 0
DWIDTH 12 0
BBX 10 11 1 0
BITMAP
1F80
7F80
7000
6000
7C00
3F80
07C0
01C0
01C0
7F80
7F00
ENDCHAR
STARTCHAR C0116-t
ENCODING 116
SWIDTH 562 0
DWIDTH 12 0
BBX 10 14 1 0
BITMAP
3800
3800
3800
FFC0
FFC0
3800
3800
3800
3800
3800
3800
1C00
1FC0
0FC0
ENDCHAR
STARTCHAR C0117-u
ENCODING 117
SWIDTH 562 0
DWIDTH 12 0
BBX 11 11 1 0
BITMAP
E180
E180
E180
E180
E180
E180
E180
E180
6380
7DE0
3DE0
ENDCHAR
STARTCHAR C0118-v
ENCODING 118
SWIDTH 562 0
DWIDTH 12 0
BBX 11 11 1 0
BITMAP
C0C0
E0C0
61C0
6180
7180
3380
3300
3B00
1F00
1E00
1E00
ENDCHAR
STARTCHAR C0119-w
ENCODING 119
SWIDTH 562 0
DWIDTH 12 0
BBX 11 11 1 0
BITMAP
CCE0
CCE0
CCC0
CEC0
DEC0
DEC0
D2C0
F2C0
F2C0
F3C0
F3C0
ENDCHAR
STARTCHAR C0120-x
ENCODING 120
SWIDTH 562 0
DWIDTH 12 0
BBX 10 11 1 0
BITMAP
E1C0
7380
3380
3F00
1E00
0C00
1E00
3F00
3380
7380
E1C0
ENDCHAR
STARTCHAR C0121-y
ENCODING 121
SWIDTH 562 0
DWIDTH 12 0
BBX 12 16 0 -5
BITMAP
6060
70E0
70E0
30C0
38C0
39C0
19C0
1D80
1D80
0F80
0F00
0300
0600
0E00
7C00
7000
ENDCHAR
STARTCHAR C0122-z
ENCODING 122
SWIDTH 562 0
DWIDTH 12 0
BBX 9 11 2 0
BITMAP
FF00
FF00
0700
0E00
0C00
1800
3800
7000
E000
FF80
FF80
ENDCHAR
STARTCHAR C0123-{
ENCODING 123
SWIDTH 562 0
DWIDTH 12 0
BBX 8 19 2 -2
BITMAP
07
1F
1C
18
18
1C
0C
0C
1C
F8
F8
1C
0C
0C
1C
18
18
1F
0F
ENDCHAR
STARTCHAR C0124-|
ENCODING 124
SWIDTH 562 0
DWIDTH 12 0
BBX 2 21 5 -3
BITMAP
C0
C0
C0
C0
C0
C0
C0
C0
C0
C0
C0
C0
C0
C0
C0
C0
C0
C0
C0
C0
C0
ENDCHAR
STARTCHAR C0125-}
ENCODING 125
SWIDTH 562 0
DWIDTH 12 0
BBX 8 19 2 -2
BITMAP
E0
F8
38
1C
18
18
38
38
38
1F
1F
38
38
38
18
18
1C
F8
F8
ENDCHAR
STARTCHAR C0126-~
ENCODING 126
SWIDTH 562 0
DWIDTH 12 0
BBX 10 5 1 5
BITMAP
78C0
FCC0
FFC0
C7C0
C380
ENDCHAR
STARTCHAR C0127
ENCODING 127
SWIDTH 562 0
DWIDTH 12 0
BBX 10 15 1 0
BITMAP
FFC0
FFC0
E0C0
E0C0
E0C0
E0C0
E0C0
E0C0
E0C0
E0C0
E0C0
E0C0
E0C0
FFC0
FFC0
ENDCHAR
STARTCHAR C0128
ENCODING 128
SWIDTH 562 0
DWIDTH 12 0
BBX 11 15 1 0
BITMAP
0F80
1FC0
38C0
3000
7000
FF00
FF00
6000
FF00
FF00
7000
3000
3800
1FC0
0FC0
ENDCHAR
STARTCHAR C0129
ENCODING 129
SWIDTH 562 0
DWIDTH 12 0
BBX 10 15 1 0
BITMAP
FFC0
FFC0
E0C0
E0C0
E0C0
E0C0
E0C0
E0C0
E0C0
E0C0
E0C0
E0C0
E0C0
FFC0
FFC0
ENDCHAR
STARTCHAR C0130
ENCODING 130
SWIDTH 562 0
DWIDTH 12 0
BBX 4 8 4 -5
BITMAP
E0
F0
30
30
30
70
E0
40
ENDCHAR
STARTCHAR C0131
ENCODING 131
SWIDTH 562 0
DWIDTH 12 0
BBX 11 20 1 -5
BITMAP
03E0
0FC0
0C00
1C00
1C00
1800
1800
FFC0
FFC0
1800
1800
1800
1800
1800
1800
1800
1800
3800
F000
E000
ENDCHAR
STARTCHAR C0132
ENCODING 132
SWIDTH 562 0
DWIDTH 12 0
BBX 9 8 2 -5
BITMAP
E700
F780
3180
3180
3180
7380
E700
4200
ENDCHAR
STARTCHAR C0133
ENCODING 133
SWIDTH 562 0
DWIDTH 12 0
BBX 12 3 0 0
BITMAP
6660
FFF0
6660
ENDCHAR
STARTCHAR C0134
ENCODING 134
SWIDTH 562 0
DWIDTH 12 0
BBX 8 12 2 3
BITMAP
18
18
18
FF
FF
18
18
18
18
18
18
18
ENDCHAR
STARTCHAR C0135
ENCODING 135
SWIDTH 562 0
DWIDTH 12 0
BBX 8 12 2 3
BITMAP
18
18
18
FF
FF
18
18
FF
FF
18
18
18
ENDCHAR
STARTCHAR C0136
ENCODING 136
SWIDTH 562 0
DWIDTH 12 0
BBX 8 4 2 13
BITMAP
1C
3C
76
67
ENDCHAR
STARTCHAR C0137
ENCODING 137
SWIDTH 562 0
DWIDTH 12 0
BBX 12 15 0 0
BITMAP
3800
7C00
EE00
C600
EEE0
7DC0
3F80
0EF0
1CF0
7990
EEF0
5FE0
1B00
1F00
0E00
ENDCHAR
STARTCHAR C0138
ENCODING 138
SWIDTH 562 0
DWIDTH 12 0
BBX 10 19 1 0
BITMAP
3300
1F00
0E00
0000
1F00
7FC0
7180
6000
6000
7000
7C00
1F00
0F80
03C0
01C0
01C0
C1C0
FF80
7F00
ENDCHAR
STARTCHAR C0139
ENCODING 139
SWIDTH 562 0
DWIDTH 12 0
BBX 6 10 3 1
BITMAP
08
18
30
70
E0
E0
70
30
18
08
ENDCHAR
STARTCHAR C0140
ENCODING 140
SWIDTH 562 0
DWIDTH 12 0
BBX 10 15 1 0
BITMAP
3FC0
7FC0
6600
E600
C600
C600
C600
C7C0
C7C0
C600
C600
E600
6600
7FC0
3FC0
ENDCHAR
STARTCHAR C0141
ENCODING 141
SWIDTH 562 0
DWIDTH 12 0
BBX 10 15 1 0
BITMAP
FFC0
FFC0
E0C0
E0C0
E0C0
E0C0
E0C0
E0C0
E0C0
E0C0
E0C0
E0C0
E0C0
FFC0
FFC0
ENDCHAR
STARTCHAR C0142
ENCODING 142
SWIDTH 562 0
DWIDTH 12 0
BBX 10 20 1 0
BITMAP
3300
1F00
0E00
0000
0000
FFC0
FFC0
01C0
0380
0300
0700
0E00
0C00
1C00
1800
3800
7000
6000
FFC0
FFC0
ENDCHAR
STARTCHAR C0143
ENCODING 143
SWIDTH 562 0
DWIDTH 12 0
BBX 10 15 1 0
BITMAP
FFC0
FFC0
E0C0
E0C0
E0C0
E0C0
E0C0
E0C0
E0C0
E0C0
E0C0
E0C0
E0C0
FFC0
FFC0
ENDCHAR
STARTCHAR C0144
ENCODING 144
SWIDTH 562 0
DWIDTH 12 0
BBX 10 15 1 0
BITMAP
FFC0
FFC0
E0C0
E0C0
E0C0
E0C0
E0C0
E0C0
E0C0
E0C0
E0C0
E0C0
E0C0
FFC0
FFC0
ENDCHAR
STARTCHAR C0145
ENCODING 145
SWIDTH 562 0
DWIDTH 12 0
BBX 4 8 4 7
BITMAP
20
70
E0
C0
C0
C0
F0
70
ENDCHAR
STARTCHAR C0146
ENCODING 146
SWIDTH 562 0
DWIDTH 12 0
BBX 4 8 4 7
BITMAP
E0
F0
30
30
30
70
E0
40
ENDCHAR
STARTCHAR C0147
ENCODING 147
SWIDTH 562 0
DWIDTH 12 0
BBX 9 8 2 7
BITMAP
2100
7380
E700
C600
C600
C600
F780
7380
ENDCHAR
STARTCHAR C0148
ENCODING 148
SWIDTH 562 0
DWIDTH 12 0
BBX 9 8 2 7
BITMAP
E700
F780
3180
3180
3180
7380
E700
4200
ENDCHAR
STARTCHAR C0149
ENCODING 149
SWIDTH 562 0
DWIDTH 12 0
BBX 7 7 3 4
BITMAP
78
FC
FC
FE
FC
FC
78
ENDCHAR
STARTCHAR C0150
ENCODING 150
SWIDTH 562 0
DWIDTH 12 0
BBX 11 2 1 6
BITMAP
FFE0
FFE0
ENDCHAR
STARTCHAR C0151
ENCODING 151
SWIDTH 562 0
DWIDTH 12 0
BBX 12 2 0 6
BITMAP
FFF0
FFF0
ENDCHAR
STARTCHAR C0152
ENCODING 152
SWIDTH 562 0
DWIDTH 12 0
BBX 8 4 2 13
BITMAP
03
7F
FF
E0
ENDCHAR
STARTCHAR C0153
ENCODING 153
SWIDTH 562 0
DWIDTH 12 0
BBX 12 7 0 8
BITMAP
FF70
FF70
27F0
26F0
26B0
2630
2630
ENDCHAR
STARTCHAR C0154
ENCODING 154
SWIDTH 562 0
DWIDTH 12 0
BBX 10 16 1 0
BITMAP
3380
3B00
1E00
0E00
0000
1F80
7F80
7000
6000
7C00
3F80
07C0
01C0
01C0
7F80
7F00
ENDCHAR
STARTCHAR C0155
ENCODING 155
SWIDTH 562 0
DWIDTH 12 0
BBX 7 10 3 1
BITMAP
60
70
38
1C
0E
0E
1C
38
70
60
ENDCHAR
STARTCHAR C0156
ENCODING 156
SWIDTH 562 0
DWIDTH 12 0
BBX 12 11 0 0
BITMAP
39E0
7DE0
E770
E630
C630
C7F0
C7F0
E700
E780
7DF0
38F0
ENDCHAR
STARTCHAR C0157
ENCODING 157
SWIDTH 562 0
DWIDTH 12 0
BBX 10 15 1 0
BITMAP
FFC0
FFC0
E0C0
E0C0
E0C0
E0C0
E0C0
E0C0
E0C0
E0C0
E0C0
E0C0
E0C0
FFC0
FFC0
ENDCHAR
STARTCHAR C0158
ENCODING 158
SWIDTH 562 0
DWIDTH 12 0
BBX 9 17 2 0
BITMAP
6700
7600
3C00
1C00
0000
0000
FF00
FF00
0700
0E00
0C00
1800
3800
7000
E000
FF80
FF80
ENDCHAR
STARTCHAR C0159
ENCODING 159
SWIDTH 562 0
DWIDTH 12 0
BBX 12 20 0 0
BITMAP
19C0
39C0
19C0
0000
0000
E070
7060
70E0
30C0
39C0
19C0
1D80
0F80
0F00
0700
0600
0600
0600
0600
0600
ENDCHAR
STARTCHAR C0160
ENCODING 160
SWIDTH 562 0
DWIDTH 12 0
BBX 1 1 0 -1
BITMAP
00
ENDCHAR
STARTCHAR C0161
ENCODING 161
SWIDTH 562 0
DWIDTH 12 0
BBX 4 15 4 -4
BITMAP
60
F0
60
00
00
60
60
60
60
60
60
60
60
60
70
ENDCHAR
STARTCHAR C0162
ENCODING 162
SWIDTH 562 0
DWIDTH 12 0
BBX 10 17 1 -3
BITMAP
0600
0600
0600
1F80
3FC0
77C0
6680
E600
E600
E600
6600
7600
3FC0
1FC0
0600
0600
0600
ENDCHAR
STARTCHAR C0163
ENCODING 163
SWIDTH 562 0
DWIDTH 12 0
BBX 11 15 1 0
BITMAP
0F80
1FC0
38C0
3800
3800
3800
3800
FF00
FF00
3000
3000
7000
6000
FFC0
FFC0
ENDCHAR
STARTCHAR C0164
ENCODING 164
SWIDTH 562 0
DWIDTH 12 0
BBX 11 12 1 1
BITMAP
4040
C0C0
FFC0
7F80
7180
61C0
61C0
7380
7F80
FFC0
C0C0
0040
ENDCHAR
STARTCHAR C0165
ENCODING 165
SWIDTH 562 0
DWIDTH 12 0
BBX 12 15 0 0
BITMAP
E070
7060
70E0
30C0
39C0
19C0
1D80
0F80
3FE0
3FE0
0600
3FE0
3FE0
0600
0600
ENDCHAR
STARTCHAR C0166
ENCODING 166
SWIDTH 562 0
DWIDTH 12 0
BBX 2 21 5 -3
BITMAP
C0
C0
C0
C0
C0
C0
C0
C0
C0
00
00
00
C0
C0
C0
C0
C0
C0
C0
C0
C0
ENDCHAR
STARTCHAR C0167
ENCODING 167
SWIDTH 562 0
DWIDTH 12 0
BBX 11 18 1 -2
BITMAP
1F80
7F80
7000
6000
7800
3F00
1FC0
E1C0
C0E0
C0E0
E1C0
FF80
3F00
0780
01C0
01C0
7F80
7F00
ENDCHAR
STARTCHAR C0168
ENCODING 168
SWIDTH 562 0
DWIDTH 12 0
BBX 8 3 2 13
BITMAP
67
E7
67
ENDCHAR
STARTCHAR C0169
ENCODING 169
SWIDTH 562 0
DWIDTH 12 0
BBX 12 14 0 0
BITMAP
0F80
3FC0
70E0
6070
EFB0
DF30
D830
D830
DFB0
EFB0
6070
70E0
3FC0
0F80
ENDCHAR
STARTCHAR C0170
ENCODING 170
SWIDTH 562 0
DWIDTH 12 0
BBX 8 7 2 8
BITMAP
78
7C
0E
7E
CE
FF
77
ENDCHAR
STARTCHAR C0171
ENCODING 171
SWIDTH 562 0
DWIDTH 12 0
BBX 11 10 1 1
BITMAP
0840
18C0
3180
7380
E700
E700
7380
3180
18C0
0840
ENDCHAR
STARTCHAR C0172
ENCODING 172
SWIDTH 562 0
DWIDTH 12 0
BBX 10 6 1 3
BITMAP
FFC0
FFC0
00C0
00C0
00C0
00C0
ENDCHAR
STARTCHAR C0173
ENCODING 173
SWIDTH 562 0
DWIDTH 12 0
BBX 10 2 1 6
BITMAP
FFC0
FFC0
ENDCHAR
STARTCHAR C0174
ENCODING 174
SWIDTH 562 0
DWIDTH 12 0
BBX 12 14 0 0
BITMAP
0F80
3FC0
70E0
6070
EF30
CDB0
CDB0
CF30
CF30
EDB0
6070
70E0
3FC0
0F80
ENDCHAR
STARTCHAR C0175
ENCODING 175
SWIDTH 562 0
DWIDTH 12 0
BBX 9 2 2 13
BITMAP
FF80
FF80
ENDCHAR
STARTCHAR C0176
ENCODING 176
SWIDTH 562 0
DWIDTH 12 0
BBX 8 8 2 7
BITMAP
3C
7E
E7
C3
C3
E7
7E
3C
ENDCHAR
STARTCHAR C0177
ENCODING 177
SWIDTH 562 0
DWIDTH 12 0
BBX 10 11 1 2
BITMAP
0C00
0C00
0C00
0C00
FFC0
FFC0
0C00
0C00
0C00
FFC0
FFC0
ENDCHAR
STARTCHAR C0178
ENCODING 178
SWIDTH 562 0
DWIDTH 12 0
BBX 6 7 3 8
BITMAP
F8
7C
1C
18
70
7C
7C
ENDCHAR
STARTCHAR C0179
ENCODING 179
SWIDTH 562 0
DWIDTH 12 0
BBX 6 7 3 8
BITMAP
78
7C
38
38
0C
7C
F8
ENDCHAR
STARTCHAR C0180
ENCODING 180
SWIDTH 562 0
DWIDTH 12 0
BBX 5 4 4 13
BITMAP
30
70
60
E0
ENDCHAR
STARTCHAR C0181
ENCODING 181
SWIDTH 562 0
DWIDTH 12 0
BBX 11 16 1 -5
BITMAP
E180
E180
E180
E180
E180
E180
E180
E180
F380
FFE0
EDE0
E000
E000
E000
E000
E000
ENDCHAR
STARTCHAR C0182
ENCODING 182
SWIDTH 562 0
DWIDTH 12 0
BBX 12 15 0 0
BITMAP
1FF0
7FF0
7EE0
FEE0
FEE0
FEE0
7EE0
7EE0
1EE0
0EE0
0EE0
0EE0
0EE0
0EE0
0EE0
ENDCHAR
STARTCHAR C0183
ENCODING 183
SWIDTH 562 0
DWIDTH 12 0
BBX 4 3 4 6
BITMAP
60
F0
60
ENDCHAR
STARTCHAR C0184
ENCODING 184
SWIDTH 562 0
DWIDTH 12 0
BBX 4 5 4 -5
BITMAP
60
F0
30
F0
E0
ENDCHAR
STARTCHAR C0185
ENCODING 185
SWIDTH 562 0
DWIDTH 12 0
BBX 6 6 3 8
BITMAP
F0
F0
30
30
FC
FC
ENDCHAR
STARTCHAR C0186
ENCODING 186
SWIDTH 562 0
DWIDTH 12 0
BBX 7 7 3 8
BITMAP
78
FC
CE
CE
CE
FC
78
ENDCHAR
STARTCHAR C0187
ENCODING 187
SWIDTH 562 0
DWIDTH 12 0
BBX 12 10 0 1
BITMAP
6300
7380
39C0
1CE0
0E70
0E70
1CE0
39C0
7380
6300
ENDCHAR
STARTCHAR C0188
ENCODING 188
SWIDTH 562 0
DWIDTH 12 0
BBX 11 15 1 0
BITMAP
F000
F000
3000
3040
F9C0
FBC0
0700
0E00
3C00
76C0
E6C0
46C0
07E0
07E0
00C0
ENDCHAR
STARTCHAR C0189
ENCODING 189
SWIDTH 562 0
DWIDTH 12 0
BBX 11 15 1 0
BITMAP
F000
F000
3000
3040
F9C0
FBC0
0700
0E00
3FC0
77C0
E0C0
40C0
0380
07E0
07E0
ENDCHAR
STARTCHAR C0190
ENCODING 190
SWIDTH 562 0
DWIDTH 12 0
BBX 11 15 1 0
BITMAP
F800
F800
1800
7000
18C0
FBC0
FF00
0E00
3C00
76C0
E6C0
46C0
07E0
07E0
00C0
ENDCHAR
STARTCHAR C0191
ENCODING 191
SWIDTH 562 0
DWIDTH 12 0
BBX 9 15 2 -4
BITMAP
1C00
1C00
1C00
0000
0000
1C00
1C00
3800
7800
E000
E000
E100
E380
7F00
3E00
ENDCHAR
STARTCHAR C0192
ENCODING 192
SWIDTH 562 0
DWIDTH 12 0
BBX 12 20 0 0
BITMAP
3800
1C00
0E00
0000
0000
0F00
0F00
0F00
0F80
1D80
1980
19C0
39C0
38C0
30C0
3FE0
7FE0
7060
6070
E070
ENDCHAR
STARTCHAR C0193
ENCODING 193
SWIDTH 562 0
DWIDTH 12 0
BBX 12 20 0 0
BITMAP
01C0
0380
0700
0000
0000
0F00
0F00
0F00
0F80
1D80
1980
19C0
39C0
38C0
30C0
3FE0
7FE0
7060
6070
E070
ENDCHAR
STARTCHAR C0194
ENCODING 194
SWIDTH 562 0
DWIDTH 12 0
BBX 12 20 0 0
BITMAP
0700
0F80
1D80
0000
0000
0F00
0F00
0F00
0F80
1D80
1980
19C0
39C0
38C0
30C0
3FE0
7FE0
7060
6070
E070
ENDCHAR
STARTCHAR C0195
ENCODING 195
SWIDTH 562 0
DWIDTH 12 0
BBX 12 20 0 0
BITMAP
1CC0
3FC0
31C0
0000
0000
0F00
0F00
0F00
0F80
1D80
1980
19C0
39C0
38C0
30C0
3FE0
7FE0
7060
6070
E070
ENDCHAR
STARTCHAR C0196
ENCODING 196
SWIDTH 562 0
DWIDTH 12 0
BBX 12 20 0 0
BITMAP
19C0
39C0
19C0
0000
0000
0F00
0F00
0F00
0F80
1D80
1980
19C0
39C0
38C0
30C0
3FE0
7FE0
7060
6070
E070
ENDCHAR
STARTCHAR C0197
ENCODING 197
SWIDTH 562 0
DWIDTH 12 0
BBX 12 20 0 0
BITMAP
0F00
1980
1980
0F00
0000
0F00
0F00
0F00
0F80
1D80
1980
19C0
39C0
38C0
30C0
3FE0
7FE0
7060
6070
E070
ENDCHAR
STARTCHAR C0198
ENCODING 198
SWIDTH 562 0
DWIDTH 12 0
BBX 11 15 0 0
BITMAP
0FE0
0FE0
1F00
1B00
1B00
1B00
3B00
33E0
33E0
3300
7300
7F00
7F00
63E0
E3E0
ENDCHAR
STARTCHAR C0199
ENCODING 199
SWIDTH 562 0
DWIDTH 12 0
BBX 11 20 1 -5
BITMAP
0F80
3FC0
70C0
6000
E000
E000
C000
C000
C000
E000
E000
E000
7800
3FC0
0FC0
0600
0F00
0300
0F00
0E00
ENDCHAR
STARTCHAR C0200
ENCODING 200
SWIDTH 562 0
DWIDTH 12 0
BBX 9 20 2 0
BITMAP
7000
3800
1C00
0000
0000
FF80
FF80
C000
C000
C000
C000
C000
FF00
FF00
C000
C000
C000
C000
FF80
FF80
ENDCHAR
STARTCHAR C0201
ENCODING 201
SWIDTH 562 0
DWIDTH 12 0
BBX 9 20 2 0
BITMAP
0700
0E00
1C00
0000
0000
FF80
FF80
C000
C000
C000
C000
C000
FF00
FF00
C000
C000
C000
C000
FF80
FF80
ENDCHAR
STARTCHAR C0202
ENCODING 202
SWIDTH 562 0
DWIDTH 12 0
BBX 9 20 2 0
BITMAP
1C00
3E00
7600
0000
0000
FF80
FF80
C000
C000
C000
C000
C000
FF00
FF00
C000
C000
C000
C000
FF80
FF80
ENDCHAR
STARTCHAR C0203
ENCODING 203
SWIDTH 562 0
DWIDTH 12 0
BBX 9 20 2 0
BITMAP
6700
E700
6700
0000
0000
FF80
FF80
C000
C000
C000
C000
C000
FF00
FF00
C000
C000
C000
C000
FF80
FF80
ENDCHAR
STARTCHAR C0204
ENCODING 204
SWIDTH 562 0
DWIDTH 12 0
BBX 9 20 2 0
BITMAP
E000
7000
3800
0000
0000
FF80
FF80
1800
1800
1800
1800
1800
1800
1800
1800
1800
1800
1800
FF80
FF80
ENDCHAR
STARTCHAR C0205
ENCODING 205
SWIDTH 562 0
DWIDTH 12 0
BBX 9 20 2 0
BITMAP
0700
0E00
1C00
0000
0000
FF80
FF80
1800
1800
1800
1800
1800
1800
1800
1800
1800
1800
1800
FF80
FF80
ENDCHAR
STARTCHAR C0206
ENCODING 206
SWIDTH 562 0
DWIDTH 12 0
BBX 9 20 2 0
BITMAP
1C00
3E00
7600
0000
0000
FF80
FF80
1800
1800
1800
1800
1800
1800
1800
1800
1800
1800
1800
FF80
FF80
ENDCHAR
STARTCHAR C0207
ENCODING 207
SWIDTH 562 0
DWIDTH 12 0
BBX 9 20 2 0
BITMAP
6700
E700
6700
0000
0000
FF80
FF80
1800
1800
1800
1800
1800
1800
1800
1800
1800
1800
1800
FF80
FF80
ENDCHAR
STARTCHAR C0208
ENCODING 208
SWIDTH 562 0
DWIDTH 12 0
BBX 12 15 0 0
BITMAP
7F00
7FC0
71C0
70E0
7060
7070
7070
FE70
FE70
7070
7060
70E0
71E0
7FC0
7F00
ENDCHAR
STARTCHAR C0209
ENCODING 209
SWIDTH 562 0
DWIDTH 12 0
BBX 10 20 1 0
BITMAP
3980
7F80
6380
0000
0000
F1C0
F1C0
F9C0
F9C0
F9C0
E9C0
EDC0
EDC0
E5C0
E7C0
E7C0
E7C0
E3C0
E3C0
E3C0
ENDCHAR
STARTCHAR C0210
ENCODING 210
SWIDTH 562 0
DWIDTH 12 0
BBX 11 19 1 0
BITMAP
7000
3800
1C00
0000
1F00
7F80
71C0
E1C0
E0C0
C0E0
C0E0
C0E0
C0E0
C0E0
E0C0
E1C0
71C0
7F80
1F00
ENDCHAR
STARTCHAR C0211
ENCODING 211
SWIDTH 562 0
DWIDTH 12 0
BBX 11 19 1 0
BITMAP
0380
0700
0E00
0000
1F00
7F80
71C0
E1C0
E0C0
C0E0
C0E0
C0E0
C0E0
C0E0
E0C0
E1C0
71C0
7F80
1F00
ENDCHAR
STARTCHAR C0212
ENCODING 212
SWIDTH 562 0
DWIDTH 12 0
BBX 11 19 1 0
BITMAP
0E00
1F00
3B00
0000
1F00
7F80
71C0
E1C0
E0C0
C0E0
C0E0
C0E0
C0E0
C0E0
E0C0
E1C0
71C0
7F80
1F00
ENDCHAR
STARTCHAR C0213
ENCODING 213
SWIDTH 562 0
DWIDTH 12 0
BBX 11 19 1 0
BITMAP
3980
7F80
6380
0000
1F00
7F80
71C0
E1C0
E0C0
C0E0
C0E0
C0E0
C0E0
C0E0
E0C0
E1C0
71C0
7F80
1F00
ENDCHAR
STARTCHAR C0214
ENCODING 214
SWIDTH 562 0
DWIDTH 12 0
BBX 11 19 1 0
BITMAP
3380
7380
3380
0000
1F00
7F80
71C0
E1C0
E0C0
C0E0
C0E0
C0E0
C0E0
C0E0
E0C0
E1C0
71C0
7F80
1F00
ENDCHAR
STARTCHAR C0215
ENCODING 215
SWIDTH 562 0
DWIDTH 12 0
BBX 10 10 1 2
BITMAP
4080
E1C0
7380
3F00
1E00
1E00
3F00
7380
E1C0
4080
ENDCHAR
STARTCHAR C0216
ENCODING 216
SWIDTH 562 0
DWIDTH 12 0
BBX 11 17 1 -1
BITMAP
00C0
1FC0
7F80
71C0
E3C0
E3C0
C6E0
C6E0
CCE0
DCE0
D8E0
F0C0
F1C0
71C0
7F80
DF00
C000
ENDCHAR
STARTCHAR C0217
ENCODING 217
SWIDTH 562 0
DWIDTH 12 0
BBX 10 20 1 0
BITMAP
7000
3800
1C00
0000
0000
E1C0
E1C0
E1C0
E1C0
E1C0
E1C0
E1C0
E1C0
E1C0
E1C0
E1C0
E1C0
71C0
7F80
1F00
ENDCHAR
STARTCHAR C0218
ENCODING 218
SWIDTH 562 0
DWIDTH 12 0
BBX 10 20 1 0
BITMAP
0380
0700
0E00
0000
0000
E1C0
E1C0
E1C0
E1C0
E1C0
E1C0
E1C0
E1C0
E1C0
E1C0
E1C0
E1C0
71C0
7F80
1F00
ENDCHAR
STARTCHAR C0219
ENCODING 219
SWIDTH 562 0
DWIDTH 12 0
BBX 10 20 1 0
BITMAP
0E00
1F00
3B00
0000
0000
E1C0
E1C0
E1C0
E1C0
E1C0
E1C0
E1C0
E1C0
E1C0
E1C0
E1C0
E1C0
71C0
7F80
1F00
ENDCHAR
STARTCHAR C0220
ENCODING 220
SWIDTH 562 0
DWIDTH 12 0
BBX 10 20 1 0
BITMAP
3380
7380
3380
0000
0000
E1C0
E1C0
E1C0
E1C0
E1C0
E1C0
E1C0
E1C0
E1C0
E1C0
E1C0
E1C0
71C0
7F80
1F00
ENDCHAR
STARTCHAR C0221
ENCODING 221
SWIDTH 562 0
DWIDTH 12 0
BBX 12 20 0 0
BITMAP
01C0
0380
0700
0000
0000
E070
7060
70E0
30C0
39C0
19C0
1D80
0F80
0F00
0700
0600
0600
0600
0600
0600
ENDCHAR
STARTCHAR C0222
ENCODING 222
SWIDTH 562 0
DWIDTH 12 0
BBX 10 15 2 0
BITMAP
C000
C000
FE00
FF00
C380
C180
C1C0
C1C0
C1C0
C180
C380
FF00
FE00
C000
C000
ENDCHAR
STARTCHAR C0223
ENCODING 223
SWIDTH 562 0
DWIDTH 12 0
BBX 11 15 1 0
BITMAP
1F00
3F80
71C0
71C0
7180
7380
7300
F300
F380
71C0
70E0
70E0
70E0
77E0
77C0
ENDCHAR
STARTCHAR C0224
ENCODING 224
SWIDTH 562 0
DWIDTH 12 0
BBX 11 17 1 0
BITMAP
3000
3800
1800
1C00
0000
0000
7E00
7F00
0380
0180
3F80
7F80
E180
C180
E380
FFE0
7DE0
ENDCHAR
STARTCHAR C0225
ENCODING 225
SWIDTH 562 0
DWIDTH 12 0
BBX 11 17 1 0
BITMAP
0600
0E00
0C00
1C00
0000
0000
7E00
7F00
0380
0180
3F80
7F80
E180
C180
E380
FFE0
7DE0
ENDCHAR
STARTCHAR C0226
ENCODING 226
SWIDTH 562 0
DWIDTH 12 0
BBX 11 17 1 0
BITMAP
0E00
1E00
3B00
3380
0000
0000
7E00
7F00
0380
0180
3F80
7F80
E180
C180
E380
FFE0
7DE0
ENDCHAR
STARTCHAR C0227
ENCODING 227
SWIDTH 562 0
DWIDTH 12 0
BBX 11 17 1 0
BITMAP
0180
3F80
7F80
7000
0000
0000
7E00
7F00
0380
0180
3F80
7F80
E180
C180
E380
FFE0
7DE0
ENDCHAR
STARTCHAR C0228
ENCODING 228
SWIDTH 562 0
DWIDTH 12 0
BBX 11 16 1 0
BITMAP
3380
7380
3380
0000
0000
7E00
7F00
0380
0180
3F80
7F80
E180
C180
E380
FFE0
7DE0
ENDCHAR
STARTCHAR C0229
ENCODING 229
SWIDTH 562 0
DWIDTH 12 0
BBX 11 17 1 0
BITMAP
1E00
1300
3300
1300
1E00
0000
7E00
7F00
0380
0180
3F80
7F80
E180
C180
E380
FFE0
7DE0
ENDCHAR
STARTCHAR C0230
ENCODING 230
SWIDTH 562 0
DWIDTH 12 0
BBX 12 11 0 0
BITMAP
79E0
7DE0
0F70
0630
1E30
7FF0
E7F0
E700
E780
FDF0
78F0
ENDCHAR
STARTCHAR C0231
ENCODING 231
SWIDTH 562 0
DWIDTH 12 0
BBX 10 16 1 -5
BITMAP
1F80
3FC0
71C0
6080
E000
E000
E000
6000
7000
3FC0
1FC0
0600
0F00
0300
0F00
0E00
ENDCHAR
STARTCHAR C0232
ENCODING 232
SWIDTH 562 0
DWIDTH 12 0
BBX 10 17 1 0
BITMAP
1800
1C00
0C00
0E00
0000
0000
1E00
7F80
7180
E1C0
E1C0
FFC0
FFC0
E000
7000
3F80
1F80
ENDCHAR
STARTCHAR C0233
ENCODING 233
SWIDTH 562 0
DWIDTH 12 0
BBX 10 17 1 0
BITMAP
0300
0700
0600
0E00
0000
0000
1E00
7F80
7180
E1C0
E1C0
FFC0
FFC0
E000
7000
3F80
1F80
ENDCHAR
STARTCHAR C0234
ENCODING 234
SWIDTH 562 0
DWIDTH 12 0
BBX 10 17 1 0
BITMAP
0E00
1E00
3B00
3380
0000
0000
1E00
7F80
7180
E1C0
E1C0
FFC0
FFC0
E000
7000
3F80
1F80
ENDCHAR
STARTCHAR C0235
ENCODING 235
SWIDTH 562 0
DWIDTH 12 0
BBX 10 16 1 0
BITMAP
3380
7380
3380
0000
0000
1E00
7F80
7180
E1C0
E1C0
FFC0
FFC0
E000
7000
3F80
1F80
ENDCHAR
STARTCHAR C0236
ENCODING 236
SWIDTH 562 0
DWIDTH 12 0
BBX 9 17 2 0
BITMAP
3000
3800
1800
1C00
0000
0000
FC00
FC00
0C00
0C00
0C00
0C00
0C00
0C00
0C00
FF80
FF80
ENDCHAR
STARTCHAR C0237
ENCODING 237
SWIDTH 562 0
DWIDTH 12 0
BBX 9 17 2 0
BITMAP
0600
0E00
0C00
1C00
0000
0000
FC00
FC00
0C00
0C00
0C00
0C00
0C00
0C00
0C00
FF80
FF80
ENDCHAR
STARTCHAR C0238
ENCODING 238
SWIDTH 562 0
DWIDTH 12 0
BBX 9 18 2 0
BITMAP
0E00
1E00
1F00
3300
0000
0000
0000
FC00
FC00
0C00
0C00
0C00
0C00
0C00
0C00
0C00
FF80
FF80
ENDCHAR
STARTCHAR C0239
ENCODING 239
SWIDTH 562 0
DWIDTH 12 0
BBX 9 16 2 0
BITMAP
3100
7380
3380
0000
0000
FC00
FC00
0C00
0C00
0C00
0C00
0C00
0C00
0C00
FF80
FF80
ENDCHAR
STARTCHAR C0240
ENCODING 240
SWIDTH 562 0
DWIDTH 12 0
BBX 10 16 1 0
BITMAP
1000
1DC0
0FC0
7F80
3180
01C0
1DC0
7FC0
73C0
E1C0
E0C0
E0C0
E1C0
7180
7F80
3E00
ENDCHAR
STARTCHAR C0241
ENCODING 241
SWIDTH 562 0
DWIDTH 12 0
BBX 9 17 2 0
BITMAP
0300
7F00
FF00
E000
0000
0000
DE00
DF00
E380
C380
C380
C380
C380
C380
C380
C380
C380
ENDCHAR
STARTCHAR C0242
ENCODING 242
SWIDTH 562 0
DWIDTH 12 0
BBX 10 17 1 0
BITMAP
1800
1C00
0C00
0E00
0000
0000
1F00
3F80
7380
61C0
E1C0
E1C0
E1C0
61C0
7380
3F80
1F00
ENDCHAR
STARTCHAR C0243
ENCODING 243
SWIDTH 562 0
DWIDTH 12 0
BBX 10 17 1 0
BITMAP
0300
0700
0600
0E00
0000
0000
1F00
3F80
7380
61C0
E1C0
E1C0
E1C0
61C0
7380
3F80
1F00
ENDCHAR
STARTCHAR C0244
ENCODING 244
SWIDTH 562 0
DWIDTH 12 0
BBX 10 17 1 0
BITMAP
0E00
1E00
3B00
3380
0000
0000
1F00
3F80
7380
61C0
E1C0
E1C0
E1C0
61C0
7380
3F80
1F00
ENDCHAR
STARTCHAR C0245
ENCODING 245
SWIDTH 562 0
DWIDTH 12 0
BBX 10 17 1 0
BITMAP
0180
3F80
7F80
7000
0000
0000
1F00
3F80
7380
61C0
E1C0
E1C0
E1C0
61C0
7380
3F80
1F00
ENDCHAR
STARTCHAR C0246
ENCODING 246
SWIDTH 562 0
DWIDTH 12 0
BBX 10 16 1 0
BITMAP
3380
7380
3380
0000
0000
1F00
3F80
7380
61C0
E1C0
E1C0
E1C0
61C0
7380
3F80
1F00
ENDCHAR
STARTCHAR C0247
ENCODING 247
SWIDTH 562 0
DWIDTH 12 0
BBX 10 12 1 1
BITMAP
0C00
1E00
0C00
0000
0000
FFC0
FFC0
0000
0000
0C00
1E00
0C00
ENDCHAR
STARTCHAR C0248
ENCODING 248
SWIDTH 562 0
DWIDTH 12 0
BBX 10 13 1 -1
BITMAP
0080
1F80
3F80
7380
67C0
E7C0
EDC0
E9C0
79C0
7380
3F80
7F00
4000
ENDCHAR
STARTCHAR C0249
ENCODING 249
SWIDTH 562 0
DWIDTH 12 0
BBX 11 17 1 0
BITMAP
3000
3800
1800
1C00
0000
0000
E180
E180
E180
E180
E180
E180
E180
E180
6380
7DE0
3DE0
ENDCHAR
STARTCHAR C0250
ENCODING 250
SWIDTH 562 0
DWIDTH 12 0
BBX 11 17 1 0
BITMAP
0600
0E00
0C00
1C00
0000
0000
E180
E180
E180
E180
E180
E180
E180
E180
6380
7DE0
3DE0
ENDCHAR
STARTCHAR C0251
ENCODING 251
SWIDTH 562 0
DWIDTH 12 0
BBX 11 17 1 0
BITMAP
0E00
1E00
3B00
3380
0000
0000
E180
E180
E180
E180
E180
E180
E180
E180
6380
7DE0
3DE0
ENDCHAR
STARTCHAR C0252
ENCODING 252
SWIDTH 562 0
DWIDTH 12 0
BBX 11 16 1 0
BITMAP
3380
7380
3380
0000
0000
E180
E180
E180
E180
E180
E180
E180
E180
6380
7DE0
3DE0
ENDCHAR
STARTCHAR C0253
ENCODING 253
SWIDTH 562 0
DWIDTH 12 0
BBX 12 22 0 -5
BITMAP
0180
0380
0300
0700
0000
0000
6060
70E0
70E0
30C0
38C0
39C0
19C0
1D80
1D80
0F80
0F00
0300
0600
0E00
7C00
7000
ENDCHAR
STARTCHAR C0254
ENCODING 254
SWIDTH 562 0
DWIDTH 12 0
BBX 9 20 2 -5
BITMAP
C000
C000
C000
C000
DE00
DF00
E380
C180
C180
C180
C180
C180
E380
DF00
DE00
C000
C000
C000
C000
C000
ENDCHAR
STARTCHAR C0255
ENCODING 255
SWIDTH 562 0
DWIDTH 12 0
BBX 12 21 0 -5
BITMAP
19C0
39C0
19C0
0000
0000
6060
70E0
70E0
30C0
38C0
39C0
19C0
1D80
1D80
0F80
0F00
0300
0600
0E00
7C00
7000
ENDCHAR
ENDFONT
